<svg width="28" height="28" viewBox="0 0 28 28" fill="none" xmlns="http://www.w3.org/2000/svg">
<path fill-rule="evenodd" clip-rule="evenodd" d="M16.5539 27.2059H21.1469C24.9869 27.2059 28.0739 24.1188 27.9986 20.2788V6.87644C27.9986 3.11172 24.9116 0.0246582 21.1469 0.0246582H7.74448C3.97977 0.0246582 0.8927 3.11172 0.8927 6.87644V20.2788C0.8927 24.0435 3.97977 27.1306 7.74448 27.1306H12.3374L12.3381 27.1304V17.4176H8.94982V13.5776H12.3381V10.6411C12.3381 7.25289 14.371 5.44583 17.4581 5.44583C18.964 5.44583 20.4698 5.67171 20.4698 5.67171V9.05996H18.8134C17.1569 9.05996 16.6298 10.1141 16.6298 11.1682V13.6529H20.3193L19.7169 17.4929H16.5545V27.1306H16.343L16.5539 27.2059Z" fill="white"/>
</svg>
